<?xml version="1.0" encoding="UTF-8"?>
<svg width="81px" height="61px" viewBox="0 0 81 61" version="1.1" xmlns="http://www.w3.org/2000/svg" xmlns:xlink="http://www.w3.org/1999/xlink">
    <title>Group Copy 2</title>
    <g id="Page-1" stroke="none" stroke-width="1" fill="none" fill-rule="evenodd">
        <g id="Artboard" transform="translate(-322.000000, -351.000000)" fill-rule="nonzero">
            <g id="Group-Copy-2" transform="translate(322.522521, 351.494141)">
                <g id="Combined-Shape-2" transform="translate(0.477479, 0.505859)" fill="#000000" fill-opacity="0.852928322">
                    <path d="M42.2211195,0.0804111723 C48.9764379,0.0804111723 53.9158105,2.06783728 57.0392373,6.04268949 C58.7643858,8.27447126 59.6905181,10.5143982 59.8176343,12.7624704 L59.8176343,12.7624704 L51.4279647,12.7624704 L51.3088628,12.398929 C50.7825164,10.8516755 50.1230779,9.66962577 49.3305473,8.85277967 C47.8051528,7.2889034 45.5443003,6.50696526 42.5479897,6.50696526 C39.4972008,6.50696526 37.0910726,7.61063836 35.3296051,9.81798457 C35.0027349,10.2275952 34.7061928,10.6687599 34.4399789,11.1414786 L33.5918411,13.038973 C32.988883,14.7753251 32.687404,16.8253422 32.687404,19.1890245 C32.687404,23.2290382 33.6180762,26.2549759 35.4794207,28.2668375 C37.3407651,30.2786992 39.7060345,31.2846301 42.5752289,31.2846301 C45.5170611,31.2846301 47.7597542,30.42124 49.3033081,28.69446 C49.8813362,28.0655997 50.3927312,27.223792 50.8374933,26.1690368 L50.9784985,18.8935993 L78.5681229,19.3256111 L78.4455315,25.6259906 L59.5666496,25.3301352 C59.3033896,26.4677899 58.9400401,27.5405377 58.4766011,28.5483789 L58.3911087,32.8698982 L76.6650875,33.1560411 L76.5448446,39.3357236 L58.2708659,39.0495808 L58.09285,48.1984077 L78.9190605,48.5245146 L78.7945903,54.9214516 L50.2861625,54.4750528 L50.6413801,36.2605788 C48.3358587,37.2765202 45.6834605,37.7844908 42.6841856,37.7844908 C36.909478,37.7844908 32.3696135,36.1228723 29.0645921,32.7996352 C27.9980057,31.7219131 27.1035221,30.5152509 26.3811412,29.1796485 L19.4350787,44.7254664 L11.5193311,44.3533181 L0.074112263,7.74778166 L9.02353135,8.16852663 L16.1328993,35.883688 L24.5663402,14.0352519 C25.3329808,10.1298584 27.0593913,6.96066921 29.7455718,4.52768434 C33.0142742,1.56283556 37.1727901,0.0804111723 42.2211195,0.0804111723 Z" id="Combined-Shape"></path>
                </g>
                <g id="open-book-(1)" transform="translate(23.477479, 40.505859)">
                    <path d="M3.67519247,0 C3.67454965,0 3.67382647,0 3.67318364,0 C3.44747164,0 3.23517861,0.0917254 3.07487407,0.258422702 C2.91280176,0.426962889 2.82352941,0.651375991 2.82352941,0.890280869 L2.82352941,14.2398867 C2.82352941,14.7294239 3.20705501,15.1286597 3.6785673,15.1299163 C5.66634358,15.1348585 8.99666032,15.5667637 11.2941176,18.0731707 L11.2941176,4.10242899 C11.2941176,3.93648559 11.253459,3.78059429 11.1767217,3.65159236 C9.29107427,0.485851434 5.66746852,0.00485851434 3.67519247,0 Z" id="Path" fill="#9B2743"></path>
                    <path d="M21.1764706,14.2399705 L21.1764706,0.890280869 C21.1764706,0.651375991 21.0871974,0.426962889 20.9251235,0.258422702 C20.7648175,0.0917254 20.5523617,0 20.3268887,0 C20.3261655,0 20.3254423,0 20.3247995,0 C18.3325849,0.00494228183 14.7089447,0.485935201 12.8231991,3.65167613 C12.7464611,3.78067806 12.7058824,3.93656936 12.7058824,4.10251275 L12.7058824,18.0731707 C15.0033615,15.5667637 18.3337098,15.1348585 20.3215049,15.1299163 C20.7929414,15.1286597 21.1764706,14.7294239 21.1764706,14.2399705 Z" id="Path" fill="#000000"></path>
                    <path d="M23.1368219,3.08943089 L22.5108431,3.08943089 L22.5108431,14.2381521 C22.5108431,15.4866422 21.5232977,16.5046959 20.309357,16.5077918 C18.6048524,16.5119755 15.7943652,16.8552872 13.8039216,18.795756 C17.2463988,17.9275613 20.8753861,18.491938 22.9435694,18.9774108 C23.201808,19.0379903 23.4686572,18.9754026 23.6755568,18.8055457 C23.8817253,18.6361072 24,18.382828 24,18.1109732 L24,3.97854394 C24,3.48830177 23.6127639,3.08943089 23.1368219,3.08943089 Z" id="Path" fill="#000000"></path>
                    <path d="M1.48916879,14.2382868 L1.48916879,3.08943089 L0.863185008,3.08943089 C0.387320357,3.08943089 0,3.48830659 0,3.97855468 L0,18.1109037 C0,18.3828453 0.11827568,18.636044 0.324445786,18.8054846 C0.531184525,18.9752598 0.797792204,19.0380993 1.05643902,18.9773517 C3.12463875,18.4917894 6.75373626,17.9274895 10.1960784,18.7956947 C8.2057002,16.8552862 5.39519061,16.5120539 3.69067236,16.5078702 C2.47680321,16.5048579 1.48916879,15.486792 1.48916879,14.2382868 Z" id="Path" fill="#000000"></path>
                </g>
            </g>
        </g>
    </g>
</svg>